<?xml version="1.0" encoding="UTF-8" standalone="no"?>
<!DOCTYPE svg PUBLIC "-//W3C//DTD SVG 1.1//EN"
 "http://www.w3.org/Graphics/SVG/1.1/DTD/svg11.dtd">
<!-- Generated by graphviz version 8.1.0 (20230707.0739)
 -->
<!-- Title: G Pages: 1 -->
<svg width="1359pt" height="260pt"
 viewBox="0.00 0.00 1358.63 260.48" xmlns="http://www.w3.org/2000/svg" xmlns:xlink="http://www.w3.org/1999/xlink">
<g id="graph0" class="graph" transform="scale(1 1) rotate(0) translate(4 256.48)">
<title>G</title><style>.edge>path:hover{stroke-width:8}</style>
<polygon fill="white" stroke="none" points="-4,4 -4,-256.48 1354.63,-256.48 1354.63,4 -4,4"/>
<!-- AIDocStringGenerator_DocStringGenerator_GoogleCommunicator -->
<g id="node1" class="node">
<title>AIDocStringGenerator_DocStringGenerator_GoogleCommunicator</title><style>.edge>path:hover{stroke-width:8}</style>
<ellipse fill="#a44646" stroke="black" cx="1162.38" cy="-31.11" rx="80.26" ry="31.11"/>
<text text-anchor="middle" x="1162.38" y="-39.61" font-family="Helvetica,sans-Serif" font-size="10.00" fill="#ffffff">AIDocStringGenerator.</text>
<text text-anchor="middle" x="1162.38" y="-27.61" font-family="Helvetica,sans-Serif" font-size="10.00" fill="#ffffff">DocStringGenerator.</text>
<text text-anchor="middle" x="1162.38" y="-15.61" font-family="Helvetica,sans-Serif" font-size="10.00" fill="#ffffff">GoogleCommunicator</text>
</g>
<!-- AIDocStringGenerator_DocStringGenerator_BaseBotCommunicator -->
<g id="node2" class="node">
<title>AIDocStringGenerator_DocStringGenerator_BaseBotCommunicator</title><style>.edge>path:hover{stroke-width:8}</style>
<ellipse fill="#a44646" stroke="black" cx="802.38" cy="-31.11" rx="82.38" ry="31.11"/>
<text text-anchor="middle" x="802.38" y="-39.61" font-family="Helvetica,sans-Serif" font-size="10.00" fill="#ffffff">AIDocStringGenerator.</text>
<text text-anchor="middle" x="802.38" y="-27.61" font-family="Helvetica,sans-Serif" font-size="10.00" fill="#ffffff">DocStringGenerator.</text>
<text text-anchor="middle" x="802.38" y="-15.61" font-family="Helvetica,sans-Serif" font-size="10.00" fill="#ffffff">BaseBotCommunicator</text>
</g>
<!-- AIDocStringGenerator_DocStringGenerator_AnthropicCommunicator -->
<g id="node3" class="node">
<title>AIDocStringGenerator_DocStringGenerator_AnthropicCommunicator</title><style>.edge>path:hover{stroke-width:8}</style>
<ellipse fill="#a44646" stroke="black" cx="263.38" cy="-31.11" rx="80.26" ry="31.11"/>
<text text-anchor="middle" x="263.38" y="-39.61" font-family="Helvetica,sans-Serif" font-size="10.00" fill="#ffffff">AIDocStringGenerator.</text>
<text text-anchor="middle" x="263.38" y="-27.61" font-family="Helvetica,sans-Serif" font-size="10.00" fill="#ffffff">DocStringGenerator.</text>
<text text-anchor="middle" x="263.38" y="-15.61" font-family="Helvetica,sans-Serif" font-size="10.00" fill="#ffffff">AnthropicCommunicator</text>
</g>
<!-- AIDocStringGenerator_DocStringGenerator_CommunicatorManager -->
<g id="node4" class="node">
<title>AIDocStringGenerator_DocStringGenerator_CommunicatorManager</title><style>.edge>path:hover{stroke-width:8}</style>
<ellipse fill="#a44646" stroke="black" cx="82.38" cy="-31.11" rx="82.38" ry="31.11"/>
<text text-anchor="middle" x="82.38" y="-39.61" font-family="Helvetica,sans-Serif" font-size="10.00" fill="#ffffff">AIDocStringGenerator.</text>
<text text-anchor="middle" x="82.38" y="-27.61" font-family="Helvetica,sans-Serif" font-size="10.00" fill="#ffffff">DocStringGenerator.</text>
<text text-anchor="middle" x="82.38" y="-15.61" font-family="Helvetica,sans-Serif" font-size="10.00" fill="#ffffff">CommunicatorManager</text>
</g>
<!-- AIDocStringGenerator_DocStringGenerator_EmptyCommunicator -->
<g id="node5" class="node">
<title>AIDocStringGenerator_DocStringGenerator_EmptyCommunicator</title><style>.edge>path:hover{stroke-width:8}</style>
<ellipse fill="#a44646" stroke="black" cx="621.38" cy="-31.11" rx="80.26" ry="31.11"/>
<text text-anchor="middle" x="621.38" y="-39.61" font-family="Helvetica,sans-Serif" font-size="10.00" fill="#ffffff">AIDocStringGenerator.</text>
<text text-anchor="middle" x="621.38" y="-27.61" font-family="Helvetica,sans-Serif" font-size="10.00" fill="#ffffff">DocStringGenerator.</text>
<text text-anchor="middle" x="621.38" y="-15.61" font-family="Helvetica,sans-Serif" font-size="10.00" fill="#ffffff">EmptyCommunicator</text>
</g>
<!-- AIDocStringGenerator_DocStringGenerator_FileCommunicator -->
<g id="node6" class="node">
<title>AIDocStringGenerator_DocStringGenerator_FileCommunicator</title><style>.edge>path:hover{stroke-width:8}</style>
<ellipse fill="#a44646" stroke="black" cx="983.38" cy="-31.11" rx="80.26" ry="31.11"/>
<text text-anchor="middle" x="983.38" y="-39.61" font-family="Helvetica,sans-Serif" font-size="10.00" fill="#ffffff">AIDocStringGenerator.</text>
<text text-anchor="middle" x="983.38" y="-27.61" font-family="Helvetica,sans-Serif" font-size="10.00" fill="#ffffff">DocStringGenerator.</text>
<text text-anchor="middle" x="983.38" y="-15.61" font-family="Helvetica,sans-Serif" font-size="10.00" fill="#ffffff">FileCommunicator</text>
</g>
<!-- AIDocStringGenerator_DocStringGenerator_OpenAICommunicator -->
<g id="node7" class="node">
<title>AIDocStringGenerator_DocStringGenerator_OpenAICommunicator</title><style>.edge>path:hover{stroke-width:8}</style>
<ellipse fill="#a44646" stroke="black" cx="442.38" cy="-31.11" rx="80.26" ry="31.11"/>
<text text-anchor="middle" x="442.38" y="-39.61" font-family="Helvetica,sans-Serif" font-size="10.00" fill="#ffffff">AIDocStringGenerator.</text>
<text text-anchor="middle" x="442.38" y="-27.61" font-family="Helvetica,sans-Serif" font-size="10.00" fill="#ffffff">DocStringGenerator.</text>
<text text-anchor="middle" x="442.38" y="-15.61" font-family="Helvetica,sans-Serif" font-size="10.00" fill="#ffffff">OpenAICommunicator</text>
</g>
<!-- AIDocStringGenerator___main__ -->
<g id="node8" class="node">
<title>AIDocStringGenerator___main__</title><style>.edge>path:hover{stroke-width:8}</style>
<ellipse fill="#b34c4c" stroke="black" cx="1270.38" cy="-120.85" rx="80.26" ry="22.63"/>
<text text-anchor="middle" x="1270.38" y="-123.35" font-family="Helvetica,sans-Serif" font-size="10.00" fill="#ffffff">AIDocStringGenerator.</text>
<text text-anchor="middle" x="1270.38" y="-111.35" font-family="Helvetica,sans-Serif" font-size="10.00" fill="#ffffff">__main__</text>
</g>
<!-- AIDocStringGenerator -->
<g id="node9" class="node">
<title>AIDocStringGenerator</title><style>.edge>path:hover{stroke-width:8}</style>
<ellipse fill="#a2b653" stroke="black" cx="1270.38" cy="-234.48" rx="65.55" ry="18"/>
<text text-anchor="middle" x="1270.38" y="-230.98" font-family="Helvetica,sans-Serif" font-size="10.00" fill="#000000">AIDocStringGenerator</text>
</g>
<!-- AIDocStringGenerator&#45;&gt;AIDocStringGenerator___main__ -->
<g id="edge1" class="edge">
<title>AIDocStringGenerator&#45;&gt;AIDocStringGenerator___main__</title><style>.edge>path:hover{stroke-width:8}</style>
<path fill="none" stroke="black" d="M1270.38,-216.04C1270.38,-199.66 1270.38,-174.74 1270.38,-154.65"/>
<polygon fill="#a2b653" stroke="black" points="1273.88,-154.77 1270.38,-144.77 1266.88,-154.77 1273.88,-154.77"/>
</g>
<!-- dotenv -->
<g id="node10" class="node">
<title>dotenv</title><style>.edge>path:hover{stroke-width:8}</style>
<ellipse fill="#10f96d" stroke="black" cx="441.38" cy="-234.48" rx="27" ry="18"/>
<text text-anchor="middle" x="441.38" y="-230.98" font-family="Helvetica,sans-Serif" font-size="10.00" fill="#000000">dotenv</text>
</g>
<!-- dotenv&#45;&gt;AIDocStringGenerator_DocStringGenerator_GoogleCommunicator -->
<g id="edge2" class="edge">
<title>dotenv&#45;&gt;AIDocStringGenerator_DocStringGenerator_GoogleCommunicator</title><style>.edge>path:hover{stroke-width:8}</style>
<path fill="none" stroke="black" d="M461.89,-222.47C466.85,-220.18 472.21,-218.01 477.38,-216.48 535.22,-199.4 708.24,-227.2 746.38,-180.48"/>
<path fill="none" stroke="black" d="M746.38,-179.48C752.09,-172.48 975.65,-95.65 1092.62,-55.8"/>
<polygon fill="#10f96d" stroke="black" points="1093.57,-58.83 1101.91,-52.29 1091.31,-52.2 1093.57,-58.83"/>
</g>
<!-- dotenv&#45;&gt;AIDocStringGenerator_DocStringGenerator_BaseBotCommunicator -->
<g id="edge3" class="edge">
<title>dotenv&#45;&gt;AIDocStringGenerator_DocStringGenerator_BaseBotCommunicator</title><style>.edge>path:hover{stroke-width:8}</style>
<path fill="none" stroke="black" d="M462.48,-222.9C467.32,-220.65 472.48,-218.38 477.38,-216.48 528.11,-196.81 565.33,-226.48 594.38,-180.48"/>
<path fill="none" stroke="black" d="M594.38,-179.48C618.63,-141.07 620.83,-126.51 656.38,-98.23 678.29,-80.79 705.54,-66.85 730.54,-56.34"/>
<polygon fill="#10f96d" stroke="black" points="731.78,-59.21 739.72,-52.2 729.14,-52.73 731.78,-59.21"/>
</g>
<!-- dotenv&#45;&gt;AIDocStringGenerator_DocStringGenerator_AnthropicCommunicator -->
<g id="edge4" class="edge">
<title>dotenv&#45;&gt;AIDocStringGenerator_DocStringGenerator_AnthropicCommunicator</title><style>.edge>path:hover{stroke-width:8}</style>
<path fill="none" stroke="black" d="M419.3,-223.8C402.05,-215.05 378.94,-200.45 366.38,-180.48"/>
<path fill="none" stroke="black" d="M366.38,-179.48C346.33,-147.61 363.03,-129.71 342.38,-98.23 334.25,-85.83 323.1,-74.53 311.74,-64.92"/>
<polygon fill="#10f96d" stroke="black" points="314.45,-61.8 304.48,-58.23 310.05,-67.24 314.45,-61.8"/>
</g>
<!-- dotenv&#45;&gt;AIDocStringGenerator_DocStringGenerator_CommunicatorManager -->
<g id="edge5" class="edge">
<title>dotenv&#45;&gt;AIDocStringGenerator_DocStringGenerator_CommunicatorManager</title><style>.edge>path:hover{stroke-width:8}</style>
<path fill="none" stroke="black" d="M328.38,-179.48C285.84,-118.97 209.81,-79.06 153.5,-56.22"/>
<polygon fill="#10f96d" stroke="black" points="155.17,-52.71 144.58,-52.28 152.59,-59.22 155.17,-52.71"/>
<path fill="none" stroke="black" d="M418.44,-224.68C394.99,-215.23 357.9,-199.06 328.38,-180.48"/>
</g>
<!-- dotenv&#45;&gt;AIDocStringGenerator_DocStringGenerator_EmptyCommunicator -->
<g id="edge6" class="edge">
<title>dotenv&#45;&gt;AIDocStringGenerator_DocStringGenerator_EmptyCommunicator</title><style>.edge>path:hover{stroke-width:8}</style>
<path fill="none" stroke="black" d="M518.38,-179.48C531.84,-137.1 562.21,-96.26 586.5,-68.37"/>
<polygon fill="#10f96d" stroke="black" points="588.47,-71.29 592.5,-61.49 583.24,-66.64 588.47,-71.29"/>
<path fill="none" stroke="black" d="M461.37,-222.26C481.79,-210.39 511.43,-191.83 518.38,-180.48"/>
</g>
<!-- dotenv&#45;&gt;AIDocStringGenerator_DocStringGenerator_FileCommunicator -->
<g id="edge7" class="edge">
<title>dotenv&#45;&gt;AIDocStringGenerator_DocStringGenerator_FileCommunicator</title><style>.edge>path:hover{stroke-width:8}</style>
<path fill="none" stroke="black" d="M670.38,-179.48C697.73,-143.21 694.12,-122.72 732.38,-98.23 794.13,-58.69 822.74,-81.88 893.38,-62.23 900.2,-60.33 907.28,-58.21 914.32,-56.02"/>
<polygon fill="#10f96d" stroke="black" points="915.12,-59.12 923.58,-52.75 912.99,-52.45 915.12,-59.12"/>
<path fill="none" stroke="black" d="M461.95,-222.66C466.9,-220.37 472.25,-218.14 477.38,-216.48 560.4,-189.63 598.87,-230.49 670.38,-180.48"/>
</g>
<!-- dotenv&#45;&gt;AIDocStringGenerator_DocStringGenerator_OpenAICommunicator -->
<g id="edge8" class="edge">
<title>dotenv&#45;&gt;AIDocStringGenerator_DocStringGenerator_OpenAICommunicator</title><style>.edge>path:hover{stroke-width:8}</style>
<path fill="none" stroke="black" d="M442.38,-179.48C431.59,-144.77 432.78,-103.21 435.97,-73.08"/>
<polygon fill="#10f96d" stroke="black" points="439.52,-73.88 437.21,-63.53 432.56,-73.05 439.52,-73.88"/>
<path fill="none" stroke="black" d="M444.94,-216.2C446.35,-205.55 446.75,-191.81 442.38,-180.48"/>
</g>
<!-- openai -->
<g id="node11" class="node">
<title>openai</title><style>.edge>path:hover{stroke-width:8}</style>
<ellipse fill="#0667f9" stroke="black" cx="614.38" cy="-234.48" rx="27" ry="18"/>
<text text-anchor="middle" x="614.38" y="-230.98" font-family="Helvetica,sans-Serif" font-size="10.00" fill="#ffffff">openai</text>
</g>
<!-- openai&#45;&gt;AIDocStringGenerator_DocStringGenerator_GoogleCommunicator -->
<g id="edge9" class="edge">
<title>openai&#45;&gt;AIDocStringGenerator_DocStringGenerator_GoogleCommunicator</title><style>.edge>path:hover{stroke-width:8}</style>
<path fill="none" stroke="black" d="M1162.38,-119.85C1161.2,-104.73 1160.94,-88.09 1161.06,-73.4"/>
<polygon fill="#0667f9" stroke="black" points="1164.57,-73.66 1161.22,-63.61 1157.57,-73.56 1164.57,-73.66"/>
</g>
<!-- openai&#45;&gt;AIDocStringGenerator_DocStringGenerator_BaseBotCommunicator -->
<g id="edge10" class="edge">
<title>openai&#45;&gt;AIDocStringGenerator_DocStringGenerator_BaseBotCommunicator</title><style>.edge>path:hover{stroke-width:8}</style>
<path fill="none" stroke="black" d="M626.67,-218.46C647.65,-193.04 691.99,-140.24 732.38,-98.23 742.26,-87.95 753.32,-77.19 763.68,-67.4"/>
<polygon fill="#0667f9" stroke="black" points="765.54,-70.52 770.44,-61.13 760.75,-65.41 765.54,-70.52"/>
</g>
<!-- openai&#45;&gt;AIDocStringGenerator_DocStringGenerator_AnthropicCommunicator -->
<g id="edge11" class="edge">
<title>openai&#45;&gt;AIDocStringGenerator_DocStringGenerator_AnthropicCommunicator</title><style>.edge>path:hover{stroke-width:8}</style>
<path fill="none" stroke="black" d="M591.33,-224.86C568.25,-215.67 532.25,-199.8 504.38,-180.48 460.91,-150.35 462.53,-127.35 418.38,-98.23 392.39,-81.08 361.22,-66.76 333.67,-55.89"/>
<polygon fill="#0667f9" stroke="black" points="335.29,-52.37 324.7,-52.04 332.76,-58.9 335.29,-52.37"/>
</g>
<!-- openai&#45;&gt;AIDocStringGenerator_DocStringGenerator_CommunicatorManager -->
<g id="edge12" class="edge">
<title>openai&#45;&gt;AIDocStringGenerator_DocStringGenerator_CommunicatorManager</title><style>.edge>path:hover{stroke-width:8}</style>
<path fill="none" stroke="black" d="M590.33,-225.87C580.73,-222.87 569.55,-219.45 559.38,-216.48 501.42,-199.56 484.21,-203.47 428.38,-180.48 359.51,-152.12 350.5,-128.33 282.38,-98.23 279.22,-96.83 210.12,-74.05 154.02,-55.62"/>
<polygon fill="#0667f9" stroke="black" points="155.3,-52.03 144.71,-52.23 153.12,-58.68 155.3,-52.03"/>
</g>
<!-- openai&#45;&gt;AIDocStringGenerator_DocStringGenerator_EmptyCommunicator -->
<g id="edge13" class="edge">
<title>openai&#45;&gt;AIDocStringGenerator_DocStringGenerator_EmptyCommunicator</title><style>.edge>path:hover{stroke-width:8}</style>
<path fill="none" stroke="black" d="M614.97,-216.31C616.07,-184.9 618.41,-117.37 619.94,-73.39"/>
<polygon fill="#0667f9" stroke="black" points="623.47,-73.6 620.32,-63.48 616.48,-73.35 623.47,-73.6"/>
</g>
<!-- openai&#45;&gt;AIDocStringGenerator_DocStringGenerator_FileCommunicator -->
<g id="edge14" class="edge">
<title>openai&#45;&gt;AIDocStringGenerator_DocStringGenerator_FileCommunicator</title><style>.edge>path:hover{stroke-width:8}</style>
<path fill="none" stroke="black" d="M1162.38,-119.85C1153.07,-97.33 1099.82,-73.03 1053.8,-55.73"/>
<polygon fill="#0667f9" stroke="black" points="1055.09,-52.11 1044.5,-51.93 1052.67,-58.67 1055.09,-52.11"/>
<path fill="none" stroke="black" d="M641.8,-233.38C758.22,-232.33 1203.69,-221.79 1162.38,-121.85"/>
</g>
<!-- openai&#45;&gt;AIDocStringGenerator_DocStringGenerator_OpenAICommunicator -->
<g id="edge15" class="edge">
<title>openai&#45;&gt;AIDocStringGenerator_DocStringGenerator_OpenAICommunicator</title><style>.edge>path:hover{stroke-width:8}</style>
<path fill="none" stroke="black" d="M601.45,-218.34C574.66,-186.98 512.4,-114.1 474.2,-69.37"/>
<polygon fill="#0667f9" stroke="black" points="476.29,-67.43 467.13,-62.1 470.97,-71.97 476.29,-67.43"/>
</g>
<!-- requests -->
<g id="node12" class="node">
<title>requests</title><style>.edge>path:hover{stroke-width:8}</style>
<ellipse fill="#c806f9" stroke="black" cx="518.38" cy="-234.48" rx="32.17" ry="18"/>
<text text-anchor="middle" x="518.38" y="-230.98" font-family="Helvetica,sans-Serif" font-size="10.00" fill="#ffffff">requests</text>
</g>
<!-- requests&#45;&gt;AIDocStringGenerator_DocStringGenerator_GoogleCommunicator -->
<g id="edge16" class="edge">
<title>requests&#45;&gt;AIDocStringGenerator_DocStringGenerator_GoogleCommunicator</title><style>.edge>path:hover{stroke-width:8}</style>
<path fill="none" stroke="black" d="M546.36,-225.14C556.42,-222.26 567.87,-219.09 578.38,-216.48 652.49,-198.06 698.09,-239.64 746.38,-180.48"/>
</g>
<!-- requests&#45;&gt;AIDocStringGenerator_DocStringGenerator_BaseBotCommunicator -->
<g id="edge17" class="edge">
<title>requests&#45;&gt;AIDocStringGenerator_DocStringGenerator_BaseBotCommunicator</title><style>.edge>path:hover{stroke-width:8}</style>
<path fill="none" stroke="black" d="M543.28,-222.61C560.44,-213.79 582.27,-199.66 594.38,-180.48"/>
</g>
<!-- requests&#45;&gt;AIDocStringGenerator_DocStringGenerator_AnthropicCommunicator -->
<g id="edge18" class="edge">
<title>requests&#45;&gt;AIDocStringGenerator_DocStringGenerator_AnthropicCommunicator</title><style>.edge>path:hover{stroke-width:8}</style>
<path fill="none" stroke="black" d="M493.35,-222.73C488.1,-220.58 482.58,-218.4 477.38,-216.48 428.72,-198.53 399.85,-220.1 366.38,-180.48"/>
</g>
<!-- requests&#45;&gt;AIDocStringGenerator_DocStringGenerator_CommunicatorManager -->
<g id="edge19" class="edge">
<title>requests&#45;&gt;AIDocStringGenerator_DocStringGenerator_CommunicatorManager</title><style>.edge>path:hover{stroke-width:8}</style>
<path fill="none" stroke="black" d="M493.9,-222.6C488.51,-220.41 482.8,-218.25 477.38,-216.48 412.6,-195.37 386.04,-216.77 328.38,-180.48"/>
</g>
<!-- requests&#45;&gt;AIDocStringGenerator_DocStringGenerator_EmptyCommunicator -->
<g id="edge20" class="edge">
<title>requests&#45;&gt;AIDocStringGenerator_DocStringGenerator_EmptyCommunicator</title><style>.edge>path:hover{stroke-width:8}</style>
<path fill="none" stroke="black" d="M515.79,-216.37C514.82,-205.79 514.7,-192.06 518.38,-180.48"/>
</g>
<!-- requests&#45;&gt;AIDocStringGenerator_DocStringGenerator_FileCommunicator -->
<g id="edge21" class="edge">
<title>requests&#45;&gt;AIDocStringGenerator_DocStringGenerator_FileCommunicator</title><style>.edge>path:hover{stroke-width:8}</style>
<path fill="none" stroke="black" d="M546.53,-225.5C588.32,-213.39 662.68,-190.69 670.38,-180.48"/>
</g>
<!-- requests&#45;&gt;AIDocStringGenerator_DocStringGenerator_OpenAICommunicator -->
<g id="edge22" class="edge">
<title>requests&#45;&gt;AIDocStringGenerator_DocStringGenerator_OpenAICommunicator</title><style>.edge>path:hover{stroke-width:8}</style>
<path fill="none" stroke="black" d="M495.51,-221.34C474.83,-209.75 446.96,-192.33 442.38,-180.48"/>
</g>
</g>
</svg>
